<svg width="15" height="10" viewBox="0 0 15 10" fill="none" xmlns="http://www.w3.org/2000/svg">
<path d="M15 5.00011C15 4.8845 14.9301 4.73086 14.8591 4.65622L10.8591 0.406019C10.6724 0.212972 10.3698 0.19065 10.1521 0.386488C9.95753 0.561749 9.95264 0.903371 10.1326 1.09364L13.3435 4.49999H0.499963C0.223731 4.49999 0 4.7239 0 4.99995C0 5.27619 0.223914 5.49992 0.499963 5.49992H13.3435L10.1326 8.90627C9.95265 9.09652 9.96538 9.4298 10.1521 9.61324C10.3492 9.80698 10.6753 9.78972 10.8591 9.59371L14.8591 5.34369C14.9766 5.22842 14.9981 5.11733 15 4.99997V5.00011Z" fill="white"/>
</svg>
