<svg width="23" height="19" viewBox="0 0 23 19" fill="none" xmlns="http://www.w3.org/2000/svg">
<path d="M22.9997 9.49983C22.9916 9.19256 22.8992 9.00772 22.781 8.87483L16.2809 0.874705C15.974 0.441878 15.2783 0.373174 14.8433 0.724734C14.4084 1.07629 14.3853 1.73339 14.7341 2.12472L19.906 8.4995H0.999903C0.447452 8.4995 0 8.94732 0 9.49941C0 10.0519 0.447818 10.4993 0.999903 10.4993H19.906L14.7341 16.8741C14.3382 17.2692 14.4509 17.9619 14.8687 18.3337C15.1903 18.6197 16.0476 18.5287 16.2812 18.1241L22.7813 10.124C22.9504 9.91682 23.002 9.76266 22.9999 9.49899L22.9997 9.49983Z" fill="white"/>
</svg>
