<svg width="143" height="73" viewBox="0 0 143 73" fill="none" xmlns="http://www.w3.org/2000/svg">
<path fill-rule="evenodd" clip-rule="evenodd" d="M51.9332 40.1385C51.9332 43.0562 49.5628 45.4299 46.6419 45.4299C43.8673 45.4299 41.5892 43.2917 41.3664 40.5776V40.2403C41.3664 39.8362 41.4173 39.4449 41.5001 39.0694V39.0631C42.041 36.7117 44.1442 34.9458 46.6641 34.949C49.4514 34.9458 51.7296 37.1094 51.9396 39.8331L51.9332 40.1385ZM43.6223 16.4499C45.5855 15.769 47.2305 15.9122 48.901 18.1395C48.901 18.1395 49.6678 19.9054 48.6941 21.334C47.9814 22.2822 44.1442 25.5595 41.5001 27.8281V20.6658H41.4873C41.4873 18.9318 41.7737 17.2677 43.6223 16.4499ZM97.2581 42.7349H97.2326C94.7413 42.7285 92.654 40.9976 92.0972 38.6717L91.9731 37.9112C91.9572 37.7585 91.9508 37.6058 91.9508 37.4435C91.9508 34.5226 94.3181 32.1585 97.2326 32.1522H97.2581C100.179 32.1553 102.553 34.5226 102.553 37.4435C102.553 40.3644 100.179 42.7349 97.2581 42.7349ZM49.2923 28.4931C51.3509 26.6413 52.9832 25.0472 52.9832 25.0472C56.7855 20.8886 54.8541 15.5495 54.8541 15.5495C52.8973 10.1595 45.7732 8.41588 40.8033 10.3122L40.3992 10.4745L40.3801 10.4841C37.6437 11.6772 34.7515 14.4136 34.7515 20.6658L34.7165 37.1158C33.9369 38.3185 30.771 39.1331 30.771 35.4103C30.771 35.4103 30.7678 34.2744 30.7678 33.9244V33.4694H30.7551L30.6946 14.875H30.7169V14.4231C30.7169 12.5331 29.1801 11.0027 27.2965 11.0027C25.3969 11.0027 23.876 12.5363 23.8729 14.4231V14.875H23.9142L23.9747 34.494C23.6883 37.1444 21.4451 39.2158 18.7151 39.2158C15.9788 39.2158 13.7324 37.1317 13.4556 34.4653L13.3761 11.1363C13.0738 5.66998 9.10926 1.18363 3.88155 0.0795452L3.42337 0C1.53656 0 0.00292969 1.52727 0.00292969 3.41408C0.0124751 8.27906 6.66882 5.59362 6.66882 11.8109V12.2659H6.672V33.4694H6.66245V33.9244C6.66882 40.5712 12.0588 45.958 18.7151 45.958C21.7665 45.958 24.5538 44.6249 26.6824 42.754C29.4442 45.2644 32.6324 45.0608 35.0283 43.3649C36.441 48.443 41.1055 52.1721 46.6419 52.1721C52.9991 52.1721 58.2046 47.2562 58.6596 41.023C59.3468 40.9212 60.05 40.7367 60.7532 40.4408C61.1382 40.2817 61.5486 40.0717 61.9718 39.8044C64.0559 41.8949 66.9036 43.2217 70.0663 43.3362C70.3845 43.3458 70.6422 43.3458 70.9572 43.3362C71.2754 43.3267 71.8895 43.2217 71.8895 43.2217C73.7318 42.9703 75.2081 41.669 75.2081 39.8108C75.205 37.9271 73.6713 36.3935 71.7877 36.3935C71.7877 36.3935 70.9636 36.6035 70.5277 36.6035H70.5054C67.5718 36.6003 65.2077 34.214 65.2077 31.309C65.2077 28.3945 67.575 26.0336 70.4927 26.024H70.5182C73.4391 26.024 75.819 28.3913 75.8127 31.309C75.8127 31.624 75.8413 32.2444 75.8413 32.2444L75.8954 41.163H75.8731C75.8731 41.2903 75.8795 41.4208 75.8954 41.5449V41.669H75.9113C76.3472 44.5771 82.0299 46.8521 84.5277 46.8521C84.5817 46.8521 84.6327 46.8521 84.6931 46.8521C84.8967 46.8458 85.1067 46.8362 85.3295 46.8139L85.3708 68.7525C85.3645 68.9211 85.724 72.1666 88.7499 72.1666C90.4681 72.1666 91.8872 70.9034 92.1322 69.2616L92.1513 69.1343C92.1608 69.077 92.1513 68.8002 92.1513 68.7525L92.1163 48.3317C93.5449 49.0094 95.1294 49.4103 96.7999 49.4739L97.2581 49.4835H97.2931L97.6972 49.4739C103.164 49.2735 107.698 45.4458 108.954 40.3262H108.958C110.183 40.3262 111.519 40.113 112.849 39.5149C113.6 39.1681 114.456 38.6431 115.277 37.8412C117.3 39.3749 119.82 40.2849 122.553 40.2849C124.51 40.2849 126.359 39.8171 127.988 38.9899L128.061 50.228C127.912 53.0216 125.605 55.2521 122.773 55.2521C120.457 55.2521 118.497 53.7535 117.774 51.6916C117.755 49.8176 116.234 48.3062 114.357 48.3062C112.493 48.3062 110.997 49.7826 110.94 51.6185C110.94 51.6185 111.894 61.9912 122.773 61.9912C129.188 61.9912 134.422 56.9894 134.803 50.6894L134.676 25.6836C134.67 25.4226 134.679 25.3367 134.673 25.2826L134.66 25.1776C134.409 23.5326 132.993 22.2599 131.272 22.2599C129.378 22.2599 127.854 23.7967 127.854 25.6836H127.896L127.908 27.7931H127.854V28.2481C127.851 31.169 125.481 33.5363 122.553 33.5363C119.817 33.5363 117.558 31.4554 117.291 28.7985L117.288 28.5345L117.224 18.3463C117.23 16.4404 115.719 14.929 113.823 14.9259C111.929 14.9259 110.402 16.4627 110.402 18.3463L110.504 29.0308H110.536C110.577 29.6449 110.51 30.6981 110.478 31.134C110.319 31.6908 110.288 32.3526 109.712 32.6294C109.346 32.8013 108.824 32.7917 108.337 32.7153C106.552 28.5472 102.483 25.5945 97.6972 25.4195L97.239 25.4067H97.2263L96.7999 25.4195C90.3599 25.6549 85.1927 30.9431 85.1927 37.4435C85.1927 38.0194 85.2372 38.5826 85.3167 39.1394V39.4831C85.0749 39.639 84.8204 39.7471 84.5658 39.7535C83.9422 39.7981 83.1468 39.2921 82.6472 38.8817L82.539 30.4722C81.4763 15.1072 58.4623 15.8963 58.4527 31.309C58.4527 31.8785 58.4909 32.4417 58.5705 32.989C58.3923 33.2913 58.1727 33.5522 57.9118 33.6667C57.6096 33.7972 57.2055 33.8003 56.8077 33.7494C55.1182 31.1213 52.4359 29.1963 49.2923 28.4931Z" fill="#2A5633"/>
<path fill-rule="evenodd" clip-rule="evenodd" d="M142.997 13.9936C142.997 16.3799 141.078 18.2731 138.631 18.2731C136.188 18.2731 134.24 16.3799 134.24 13.9936C134.24 11.6009 136.188 9.73633 138.657 9.73633C141.078 9.73633 142.997 11.6009 142.997 13.9936ZM135.332 13.9936C135.332 15.8868 136.76 17.3949 138.657 17.3949C140.502 17.4172 141.905 15.8868 141.905 14.019C141.905 12.1227 140.502 10.5922 138.606 10.5922C136.76 10.5922 135.332 12.1227 135.332 13.9936ZM137.957 16.1986H136.97V11.9413C137.358 11.8904 137.906 11.8109 138.606 11.8109C139.411 11.8109 139.773 11.9413 140.06 12.1513C140.321 12.3327 140.502 12.6445 140.502 13.0581C140.502 13.5768 140.111 13.914 139.618 14.07V14.1209C140.034 14.2513 140.241 14.5886 140.372 15.1581C140.502 15.8072 140.607 16.0395 140.683 16.1986H139.643C139.516 16.0395 139.436 15.6768 139.306 15.1581C139.229 14.719 138.968 14.509 138.424 14.509H137.957V16.1986ZM137.982 13.809H138.45C138.994 13.809 139.436 13.6277 139.436 13.1886C139.436 12.8004 139.15 12.5395 138.529 12.5395C138.268 12.5395 138.087 12.565 137.982 12.5904V13.809Z" fill="#2A5633"/>
<path fill-rule="evenodd" clip-rule="evenodd" d="M12.1486 61.8321C12.1486 61.8544 12.1422 61.8766 12.1295 61.8957C12.1168 61.9116 12.0945 61.9276 12.0595 61.9403C12.0277 61.9498 11.9831 61.9594 11.9258 61.9689C11.8718 61.9753 11.7986 61.9785 11.7159 61.9785C11.6299 61.9785 11.5599 61.9753 11.5059 61.9689C11.4518 61.9594 11.4072 61.9498 11.3754 61.9403C11.3404 61.9276 11.3181 61.9116 11.3054 61.8957C11.2895 61.8766 11.2831 61.8544 11.2831 61.8321V58.1508H11.2768L9.98177 61.8289C9.9754 61.8576 9.95949 61.883 9.93722 61.9021C9.91813 61.9244 9.88949 61.9403 9.85449 61.9498C9.81949 61.9626 9.77177 61.9689 9.71768 61.9721C9.66358 61.9785 9.59359 61.9785 9.51722 61.9785C9.43768 61.9785 9.37086 61.9753 9.31677 61.9689C9.2595 61.9626 9.21495 61.953 9.17995 61.9403C9.14495 61.9276 9.11631 61.9116 9.09404 61.8957C9.07495 61.8766 9.05904 61.8544 9.05268 61.8289L7.80223 58.1508H7.79586V61.8321C7.79586 61.8544 7.7895 61.8766 7.77677 61.8957C7.76405 61.9116 7.74177 61.9276 7.70677 61.9403C7.67177 61.9498 7.62723 61.9594 7.57314 61.9689C7.51905 61.9753 7.44905 61.9785 7.36314 61.9785C7.28041 61.9785 7.21041 61.9753 7.15314 61.9689C7.09905 61.9594 7.0545 61.9498 7.0195 61.9403C6.98768 61.9276 6.96541 61.9116 6.95268 61.8957C6.93678 61.8766 6.93359 61.8544 6.93359 61.8321V57.8039C6.93359 57.6862 6.96223 57.5939 7.02587 57.5303C7.0895 57.4667 7.16905 57.438 7.27723 57.438H7.87223C7.97723 57.438 8.0695 57.4444 8.14586 57.4635C8.22223 57.4826 8.28904 57.5112 8.34313 57.5494C8.39723 57.5908 8.44495 57.6448 8.48313 57.7117C8.51813 57.7785 8.54995 57.8612 8.57859 57.9567L9.54268 60.6517H9.55859L10.5577 57.963C10.5863 57.8676 10.6213 57.7848 10.6563 57.7148C10.6913 57.648 10.7327 57.5939 10.7804 57.5526C10.8281 57.5112 10.8854 57.4826 10.949 57.4635C11.0127 57.4444 11.089 57.438 11.1749 57.438H11.789C11.8527 57.438 11.9036 57.4444 11.9481 57.4635C11.9927 57.4762 12.0308 57.5017 12.0595 57.5335C12.0881 57.5653 12.1104 57.6035 12.1263 57.648C12.1422 57.6926 12.1486 57.7467 12.1486 57.8039V61.8321ZM15.9254 60.1903C15.9254 60.2985 15.9031 60.378 15.8554 60.4289C15.8077 60.4798 15.744 60.5053 15.6581 60.5053H13.7777C13.7777 60.6389 13.7936 60.7567 13.8254 60.8648C13.8572 60.973 13.9049 61.0653 13.9749 61.1385C14.0418 61.2148 14.1308 61.2721 14.2358 61.3103C14.344 61.3516 14.4713 61.3707 14.6208 61.3707C14.7736 61.3707 14.9072 61.3612 15.0249 61.3389C15.1395 61.3135 15.2381 61.2912 15.324 61.2626C15.4067 61.2371 15.4767 61.2116 15.5308 61.1894C15.5881 61.1671 15.6327 61.1576 15.6677 61.1576C15.6867 61.1576 15.7058 61.1607 15.7186 61.1671C15.7313 61.1766 15.744 61.1926 15.7536 61.2116C15.7631 61.2339 15.7695 61.2626 15.7727 61.3007C15.7758 61.3389 15.779 61.3866 15.779 61.4439C15.779 61.4948 15.7758 61.5394 15.7727 61.5744C15.7727 61.6126 15.7695 61.6412 15.7631 61.6666C15.7599 61.6921 15.7536 61.7144 15.744 61.7303C15.7345 61.7494 15.7217 61.7653 15.7058 61.7844C15.6899 61.7971 15.6517 61.8226 15.5849 61.8512C15.5149 61.8798 15.4322 61.9053 15.3272 61.9339C15.2222 61.9594 15.1045 61.9848 14.9708 62.0039C14.8372 62.0262 14.694 62.0357 14.5445 62.0357C14.2677 62.0357 14.029 62.0007 13.8222 61.9307C13.6154 61.8607 13.4436 61.7557 13.3036 61.6126C13.1668 61.4726 13.0618 61.2912 12.9949 61.078C12.9281 60.8585 12.8931 60.6071 12.8931 60.3144C12.8931 60.0407 12.9281 59.7894 13.0013 59.5667C13.0713 59.3439 13.1763 59.1562 13.3131 59.0003C13.4468 58.8444 13.6122 58.7267 13.8095 58.6471C14.0036 58.5644 14.2231 58.523 14.4681 58.523C14.7258 58.523 14.9486 58.5612 15.1299 58.6376C15.3145 58.7139 15.4672 58.8221 15.5849 58.9589C15.6995 59.0926 15.7886 59.2548 15.8427 59.4426C15.8999 59.6303 15.9254 59.8339 15.9254 60.0535V60.1903ZM15.0822 59.9421C15.0917 59.6939 15.0408 59.4967 14.9358 59.3567C14.8308 59.2167 14.6686 59.1467 14.449 59.1467C14.3377 59.1467 14.2422 59.1657 14.1595 59.2071C14.0768 59.2517 14.0068 59.3057 13.9527 59.3789C13.8986 59.4489 13.8572 59.5317 13.8286 59.6335C13.7999 59.7289 13.784 59.8307 13.7777 59.9421H15.0822ZM19.7308 60.2507C19.7308 60.518 19.6895 60.763 19.6099 60.9826C19.5304 61.2053 19.4158 61.393 19.2695 61.5457C19.1231 61.7016 18.9481 61.8226 18.7445 61.9085C18.5408 61.9912 18.3149 62.0357 18.0636 62.0357C17.7867 62.0357 17.5513 61.9912 17.354 61.9053C17.1567 61.8194 16.9945 61.6889 16.8672 61.5171C16.7367 61.3421 16.6445 61.1257 16.584 60.8617C16.5267 60.5976 16.4981 60.2857 16.4981 59.9294C16.4981 59.6717 16.5108 59.4267 16.5363 59.1976C16.5617 58.9717 16.6031 58.7617 16.654 58.5707C16.7049 58.383 16.7686 58.2144 16.8481 58.0712C16.9213 57.928 17.0008 57.8135 17.0804 57.7276C17.1631 57.6417 17.2427 57.5717 17.3158 57.5208C17.3922 57.4667 17.4781 57.4221 17.5704 57.3808C17.6626 57.3394 17.7645 57.3044 17.8758 57.2758C17.9904 57.2439 18.1145 57.2185 18.2481 57.1994L19.349 57.0371C19.3872 57.0339 19.4222 57.0339 19.4508 57.0339C19.4763 57.0371 19.4954 57.0498 19.5113 57.0753C19.524 57.0976 19.5336 57.1358 19.5367 57.1898C19.5431 57.2408 19.5431 57.3139 19.5431 57.4062C19.5431 57.473 19.5431 57.5303 19.5367 57.578C19.5336 57.6258 19.524 57.6639 19.5113 57.6989C19.4954 57.7339 19.4763 57.7626 19.454 57.7817C19.4286 57.8008 19.3967 57.8135 19.3617 57.8198L18.3467 57.9726C18.2513 57.9885 18.1686 58.0044 18.0986 58.0203C18.0254 58.0394 17.9617 58.0585 17.9076 58.0808C17.8567 58.103 17.809 58.1285 17.7676 58.1571C17.7263 58.1826 17.6881 58.2176 17.6499 58.2589C17.6086 58.2971 17.5736 58.348 17.5417 58.4085C17.5099 58.4721 17.4813 58.5389 17.459 58.6089C17.4336 58.6821 17.4177 58.7617 17.3986 58.8476C17.3827 58.9335 17.3699 59.0226 17.354 59.118C17.4177 59.0512 17.4876 58.9907 17.564 58.9367C17.6404 58.8826 17.7231 58.8348 17.8122 58.7967C17.8981 58.7585 17.9904 58.7298 18.089 58.7076C18.1876 58.6853 18.2895 58.6726 18.3976 58.6726C18.6236 58.6726 18.8208 58.7107 18.9863 58.7807C19.1549 58.8539 19.2917 58.9557 19.4031 59.0926C19.5113 59.2294 19.594 59.3948 19.6481 59.5921C19.7022 59.7862 19.7308 60.0057 19.7308 60.2507ZM18.8431 60.2985C18.8431 60.168 18.8304 60.0503 18.8081 59.9357C18.7858 59.8276 18.7476 59.7289 18.6967 59.6494C18.6458 59.5667 18.579 59.4998 18.4963 59.4521C18.4104 59.4044 18.3117 59.3821 18.1908 59.3821C18.1145 59.3821 18.0413 59.3917 17.9745 59.4107C17.9076 59.4298 17.844 59.4585 17.7772 59.4998C17.7167 59.5412 17.6531 59.5889 17.5895 59.6462C17.529 59.7003 17.4622 59.7639 17.3922 59.8403C17.3922 59.8689 17.389 59.8976 17.389 59.9294C17.389 59.9612 17.389 59.9962 17.389 60.0312C17.389 60.2476 17.4017 60.4385 17.4272 60.5976C17.4527 60.7598 17.494 60.8935 17.5513 61.0017C17.6086 61.1066 17.6817 61.1862 17.774 61.2371C17.8631 61.288 17.9745 61.3135 18.1049 61.3135C18.2226 61.3135 18.3276 61.2912 18.4199 61.2466C18.5122 61.2021 18.5917 61.1353 18.6522 61.0494C18.7158 60.9603 18.7636 60.8553 18.7954 60.728C18.8272 60.6007 18.8431 60.4576 18.8431 60.2985ZM23.2658 60.1903C23.2658 60.2985 23.2435 60.378 23.1958 60.4289C23.1481 60.4798 23.0844 60.5053 22.9985 60.5053H21.1181C21.1181 60.6389 21.134 60.7567 21.1658 60.8648C21.1976 60.973 21.2485 61.0653 21.3154 61.1385C21.3822 61.2148 21.4713 61.2721 21.5795 61.3103C21.6845 61.3516 21.8117 61.3707 21.9645 61.3707C22.114 61.3707 22.2476 61.3612 22.3654 61.3389C22.4799 61.3135 22.5785 61.2912 22.6645 61.2626C22.7472 61.2371 22.8172 61.2116 22.8713 61.1894C22.9285 61.1671 22.9731 61.1576 23.0081 61.1576C23.0272 61.1576 23.0463 61.1607 23.059 61.1671C23.0717 61.1766 23.0844 61.1926 23.094 61.2116C23.1035 61.2339 23.1099 61.2626 23.1131 61.3007C23.1163 61.3389 23.1194 61.3866 23.1194 61.4439C23.1194 61.4948 23.1163 61.5394 23.1131 61.5744C23.1131 61.6126 23.1099 61.6412 23.1035 61.6666C23.1004 61.6921 23.094 61.7144 23.0844 61.7303C23.0749 61.7494 23.0622 61.7653 23.0463 61.7844C23.0304 61.7971 22.9922 61.8226 22.9254 61.8512C22.8585 61.8798 22.7726 61.9053 22.6676 61.9339C22.5626 61.9594 22.4449 61.9848 22.3113 62.0039C22.1776 62.0262 22.0376 62.0357 21.8849 62.0357C21.6081 62.0357 21.3695 62.0007 21.1626 61.9307C20.9558 61.8607 20.784 61.7557 20.644 61.6126C20.5072 61.4726 20.4022 61.2912 20.3354 61.078C20.2685 60.8585 20.2336 60.6071 20.2336 60.3144C20.2336 60.0407 20.2685 59.7894 20.3417 59.5667C20.4117 59.3439 20.5167 59.1562 20.6535 59.0003C20.7904 58.8444 20.9526 58.7267 21.1499 58.6471C21.344 58.5644 21.5635 58.523 21.8085 58.523C22.0695 58.523 22.289 58.5612 22.4735 58.6376C22.6549 58.7139 22.8076 58.8221 22.9254 58.9589C23.0399 59.0926 23.129 59.2548 23.1831 59.4426C23.2404 59.6303 23.2658 59.8339 23.2658 60.0535V60.1903ZM22.4226 59.9421C22.4322 59.6939 22.3813 59.4967 22.2763 59.3567C22.1713 59.2167 22.009 59.1467 21.7895 59.1467C21.6781 59.1467 21.5826 59.1657 21.4999 59.2071C21.4172 59.2517 21.3472 59.3057 21.2931 59.3789C21.239 59.4489 21.1976 59.5317 21.169 59.6335C21.1404 59.7289 21.1245 59.8307 21.1181 59.9421H22.4226ZM26.7276 61.8385C26.7276 61.8607 26.7213 61.883 26.7085 61.8989C26.6926 61.918 26.6703 61.9307 26.6385 61.9435C26.6067 61.953 26.559 61.9626 26.5049 61.9689C26.4476 61.9753 26.3776 61.9785 26.2949 61.9785C26.209 61.9785 26.139 61.9753 26.0817 61.9689C26.0244 61.9626 25.9767 61.953 25.9449 61.9435C25.9131 61.9307 25.8876 61.918 25.8749 61.8989C25.8622 61.883 25.8558 61.8607 25.8558 61.8385V59.3153H25.2322C25.1972 59.6844 25.1494 60.0057 25.0954 60.2826C25.0413 60.5594 24.9776 60.798 24.9076 60.9953C24.8344 61.1989 24.7581 61.3644 24.669 61.4948C24.5831 61.6285 24.4876 61.7303 24.3826 61.8066C24.2808 61.8862 24.1663 61.9403 24.0454 61.9721C23.9244 62.0039 23.7972 62.0198 23.6635 62.0198C23.6317 62.0198 23.6031 62.0166 23.5808 62.0071C23.5617 61.9976 23.5458 61.9785 23.5331 61.953C23.5235 61.9244 23.514 61.8862 23.5108 61.8353C23.5044 61.7844 23.5044 61.7176 23.5044 61.6316C23.5044 61.5457 23.5044 61.4757 23.5076 61.4216C23.5108 61.3707 23.5172 61.3294 23.5267 61.3007C23.5363 61.2721 23.549 61.253 23.5649 61.2435C23.5808 61.2339 23.6031 61.2276 23.6254 61.2276C23.689 61.2276 23.7526 61.2148 23.8131 61.1862C23.8704 61.1607 23.9276 61.113 23.9785 61.043C24.0294 60.9762 24.0804 60.8839 24.1249 60.7726C24.1726 60.6612 24.2172 60.518 24.2554 60.343C24.2935 60.1712 24.3317 59.9676 24.3667 59.7289C24.4017 59.4871 24.4367 59.2071 24.4685 58.8921C24.4717 58.7967 24.4908 58.7267 24.529 58.6789C24.564 58.6344 24.6213 58.6089 24.7008 58.6089H26.489C26.5685 58.6089 26.629 58.6344 26.6703 58.6789C26.7085 58.7267 26.7276 58.7967 26.7276 58.8921V61.8385ZM30.5362 60.7917C30.5362 60.9762 30.5012 61.1448 30.4344 61.2976C30.3676 61.4503 30.2626 61.5807 30.1162 61.6889C29.9762 61.7971 29.8012 61.8798 29.5849 61.9403C29.3717 61.9976 29.1203 62.0294 28.8276 62.0294C28.7544 62.0294 28.6749 62.0294 28.5922 62.0262C28.5126 62.0262 28.4331 62.023 28.3535 62.0198C28.2772 62.0166 28.1976 62.0103 28.1244 62.0071C28.0481 62.0039 27.9781 61.9976 27.9144 61.9912C27.8031 61.9785 27.7235 61.9435 27.6726 61.8894C27.6249 61.8321 27.5994 61.7462 27.5994 61.6348V58.7203C27.5994 58.698 27.6058 58.6757 27.6185 58.6598C27.6344 58.6407 27.6567 58.628 27.6917 58.6153C27.7235 58.6057 27.7681 58.5962 27.8222 58.5898C27.8794 58.5835 27.9494 58.5803 28.0322 58.5803C28.1149 58.5803 28.1881 58.5835 28.2422 58.5898C28.2994 58.5962 28.3408 58.6057 28.3758 58.6153C28.4076 58.628 28.4331 58.6407 28.449 58.6598C28.4649 58.6757 28.4713 58.698 28.4713 58.7203V59.6876C28.5508 59.6812 28.6335 59.6748 28.7258 59.6685C28.8181 59.6653 28.9135 59.6621 29.0122 59.6621C29.2731 59.6621 29.499 59.6907 29.6899 59.7417C29.884 59.7926 30.0399 59.8689 30.1672 59.9676C30.2912 60.063 30.3835 60.1807 30.444 60.3207C30.5044 60.4576 30.5362 60.6167 30.5362 60.7917ZM29.6199 60.8426C29.6199 60.7598 29.6072 60.6867 29.5817 60.623C29.5562 60.5594 29.5149 60.5021 29.4576 60.4576C29.4003 60.413 29.3272 60.378 29.2381 60.3557C29.149 60.3335 29.0376 60.3207 28.9103 60.3207C28.8276 60.3207 28.7481 60.3207 28.6717 60.3239C28.5953 60.3303 28.5285 60.3335 28.4713 60.3398V61.3453C28.5381 61.3516 28.6081 61.358 28.6844 61.3644C28.7608 61.3676 28.8403 61.3707 28.9262 61.3707C29.1617 61.3707 29.3367 61.323 29.4512 61.2307C29.5626 61.1385 29.6199 61.008 29.6199 60.8426ZM35.7862 61.8512C35.7862 61.8735 35.7799 61.8926 35.7671 61.9085C35.7544 61.9244 35.7321 61.9371 35.7003 61.9498C35.6653 61.9594 35.624 61.9657 35.5699 61.9721C35.5158 61.9753 35.4458 61.9785 35.363 61.9785C35.2803 61.9785 35.2071 61.9753 35.153 61.9721C35.0958 61.9657 35.048 61.9594 35.013 61.9498C34.978 61.9371 34.9526 61.9244 34.9367 61.9085C34.9208 61.8926 34.9144 61.8735 34.9144 61.8512V60.4607C34.9144 60.3621 34.9176 60.2603 34.924 60.1553C34.9271 60.0503 34.9367 59.9485 34.9494 59.8467C34.8921 59.9453 34.8349 60.0407 34.768 60.1362C34.7044 60.2317 34.6376 60.3239 34.5708 60.4162L33.5303 61.8448C33.5081 61.8703 33.489 61.8926 33.4699 61.9116C33.454 61.9276 33.4285 61.9403 33.3999 61.953C33.3712 61.9626 33.3362 61.9689 33.2917 61.9721C33.2471 61.9785 33.1899 61.9785 33.1199 61.9785C33.0371 61.9785 32.9703 61.9753 32.9194 61.9721C32.8685 61.9657 32.8271 61.9594 32.7953 61.9498C32.7635 61.9371 32.7412 61.9244 32.7285 61.9053C32.7158 61.8894 32.7094 61.8671 32.7094 61.8448V58.7171C32.7094 58.6948 32.7158 58.6757 32.7285 58.6598C32.7412 58.6407 32.7635 58.628 32.7985 58.6153C32.8303 58.6057 32.8749 58.5962 32.929 58.5898C32.9831 58.5835 33.0531 58.5803 33.1358 58.5803C33.2981 58.5803 33.4126 58.593 33.4826 58.6153C33.5494 58.6376 33.5812 58.6726 33.5812 58.7171V60.1012C33.5812 60.1998 33.5781 60.2985 33.5717 60.4003C33.5653 60.5021 33.5558 60.6007 33.5431 60.6962C33.6003 60.6039 33.6544 60.5117 33.7117 60.4194C33.7721 60.3271 33.8326 60.238 33.8962 60.1521L34.9494 58.7171C34.9685 58.6917 34.9876 58.6694 35.0067 58.6535C35.029 58.6344 35.0544 58.6217 35.0862 58.6089C35.118 58.5994 35.1562 58.593 35.2008 58.5867C35.2453 58.5835 35.3026 58.5803 35.3758 58.5803C35.4585 58.5803 35.5253 58.5835 35.5794 58.5867C35.6303 58.593 35.6717 58.5994 35.7035 58.6121C35.7353 58.6248 35.7576 58.6376 35.7671 58.6567C35.7799 58.6757 35.7862 58.698 35.7862 58.7203V61.8512ZM39.0094 60.9762C39.0094 61.148 38.9744 61.3007 38.9012 61.4312C38.8312 61.5616 38.7294 61.673 38.6021 61.7653C38.4717 61.8544 38.3158 61.9212 38.1312 61.9689C37.9499 62.0135 37.743 62.0357 37.5139 62.0357C37.3962 62.0357 37.2849 62.0262 37.1767 62.0103C37.0653 61.9912 36.9667 61.9689 36.8776 61.9435C36.7853 61.9148 36.709 61.8894 36.6485 61.8576C36.588 61.8289 36.5467 61.8035 36.518 61.7844C36.4926 61.7589 36.4735 61.7398 36.4608 61.7176C36.448 61.6953 36.4385 61.6698 36.4321 61.6412C36.4258 61.6126 36.4194 61.5807 36.4194 61.5394C36.4162 61.498 36.4162 61.4503 36.4162 61.393C36.4162 61.3389 36.4162 61.2944 36.4226 61.2626C36.4258 61.2307 36.4321 61.2053 36.4417 61.183C36.448 61.1639 36.4576 61.148 36.4703 61.1385C36.483 61.1321 36.4958 61.1289 36.5117 61.1289C36.5403 61.1289 36.5785 61.1416 36.6262 61.1735C36.674 61.2021 36.7344 61.2307 36.8076 61.2657C36.8808 61.3007 36.9699 61.3326 37.0749 61.3612C37.1799 61.3898 37.3039 61.4057 37.4535 61.4057C37.5553 61.4057 37.6444 61.3962 37.7208 61.3771C37.8003 61.3548 37.8639 61.323 37.9149 61.2848C37.9689 61.2466 38.0071 61.2021 38.0326 61.1448C38.0612 61.0907 38.0739 61.0271 38.0739 60.9571C38.0739 60.8935 38.0612 60.833 38.0358 60.7821C38.0103 60.7312 37.9689 60.6867 37.9085 60.6517C37.8512 60.6167 37.7717 60.588 37.6762 60.5689C37.5808 60.553 37.463 60.5403 37.3262 60.5403H36.9921C36.9635 60.5403 36.938 60.5371 36.9189 60.5276C36.8999 60.5148 36.8871 60.4989 36.8744 60.4767C36.8649 60.4512 36.8553 60.4194 36.8521 60.3812C36.8489 60.3398 36.8458 60.2921 36.8458 60.238C36.8458 60.1807 36.8489 60.1394 36.8553 60.1012C36.8585 60.0662 36.8649 60.0376 36.8776 60.0153C36.8871 59.993 36.8999 59.9803 36.9189 59.9707C36.9349 59.9612 36.9539 59.9548 36.9826 59.9548H37.3008C37.428 59.9548 37.533 59.9453 37.6221 59.9294C37.7144 59.9103 37.7876 59.8817 37.8449 59.8467C37.9021 59.8085 37.9435 59.7639 37.9689 59.713C37.9976 59.6621 38.0103 59.5985 38.0103 59.5253C38.0103 59.4648 37.9976 59.4107 37.9721 59.363C37.9467 59.3153 37.9117 59.2771 37.8639 59.2453C37.8194 59.2135 37.7621 59.1912 37.6953 59.1753C37.6317 59.1594 37.5585 59.153 37.4789 59.153C37.3485 59.153 37.2308 59.1657 37.1289 59.1976C37.0271 59.2262 36.938 59.258 36.8617 59.293C36.7853 59.328 36.7217 59.3598 36.674 59.3885C36.623 59.4171 36.5849 59.4298 36.5626 59.4298C36.5467 59.4298 36.534 59.4298 36.5244 59.4235C36.5117 59.4171 36.5021 59.4044 36.4894 59.3821C36.4799 59.363 36.4703 59.3376 36.464 59.3026C36.4608 59.2676 36.4576 59.2198 36.4576 59.1626C36.4576 59.0703 36.464 58.9971 36.4767 58.943C36.4894 58.8889 36.5085 58.8476 36.5403 58.8189C36.5658 58.7871 36.6167 58.7553 36.6899 58.7203C36.763 58.6853 36.8489 58.6503 36.9476 58.6217C37.0462 58.593 37.1544 58.5707 37.2689 58.5517C37.3867 58.5326 37.5044 58.523 37.6285 58.523C37.8162 58.523 37.9912 58.5421 38.1471 58.5803C38.3062 58.6153 38.4367 58.6726 38.548 58.7489C38.6562 58.8221 38.7421 58.9176 38.7994 59.0289C38.8599 59.1403 38.8885 59.2707 38.8885 59.4171C38.8885 59.5062 38.8726 59.5921 38.8471 59.6748C38.8185 59.7544 38.7803 59.8307 38.7294 59.8976C38.6785 59.9612 38.618 60.0217 38.5449 60.0726C38.4717 60.1235 38.3858 60.1617 38.2935 60.1903L38.2903 60.1967C38.3889 60.2094 38.4812 60.238 38.5671 60.2826C38.653 60.3271 38.7326 60.3812 38.7962 60.448C38.863 60.518 38.9139 60.5944 38.9521 60.6835C38.9903 60.7726 39.0094 60.8712 39.0094 60.9762ZM45.7135 59.5603C45.7135 59.8148 45.6721 60.0439 45.5926 60.2507C45.513 60.4576 45.3953 60.6357 45.2394 60.7853C45.0835 60.9348 44.8894 61.0557 44.6571 61.148C44.4248 61.2403 44.1576 61.2976 43.8553 61.3198V61.8448C43.8553 61.8671 43.8489 61.8894 43.833 61.9053C43.8171 61.9244 43.7948 61.9371 43.7598 61.9498C43.728 61.9594 43.6803 61.9657 43.623 61.9721C43.5626 61.9753 43.4894 61.9785 43.4067 61.9785C43.3176 61.9785 43.2476 61.9753 43.1903 61.9721C43.133 61.9657 43.0853 61.9594 43.0535 61.9498C43.0185 61.9371 42.993 61.9244 42.9771 61.9085C42.9644 61.8926 42.9548 61.8703 42.9548 61.8448V61.3198C42.6526 61.3071 42.3821 61.2626 42.1498 61.1862C41.9176 61.1098 41.7235 61.0017 41.5708 60.8585C41.4148 60.7185 41.2971 60.5403 41.2176 60.3335C41.138 60.1235 41.0998 59.8785 41.0998 59.5953C41.0998 59.3535 41.138 59.1339 41.2176 58.9335C41.2971 58.7298 41.4148 58.5548 41.5708 58.4053C41.7267 58.2557 41.9207 58.1317 42.153 58.0394C42.3821 57.9439 42.6526 57.8835 42.9548 57.858V57.3648C42.9548 57.3426 42.9644 57.3235 42.9771 57.3076C42.993 57.2917 43.0185 57.2789 43.0535 57.2694C43.0853 57.2598 43.133 57.2503 43.1903 57.2471C43.2476 57.2408 43.3207 57.2376 43.4067 57.2376C43.4894 57.2376 43.5626 57.2408 43.623 57.2471C43.6803 57.2503 43.728 57.2598 43.7598 57.2694C43.7948 57.2789 43.8171 57.2917 43.833 57.3076C43.8489 57.3235 43.8553 57.3426 43.8553 57.3648V57.858C44.1607 57.8739 44.428 57.9217 44.6603 58.0012C44.8894 58.0776 45.0835 58.1858 45.2394 58.3257C45.3953 58.4657 45.513 58.6376 45.5926 58.8444C45.6721 59.0512 45.7135 59.2867 45.7135 59.5603ZM44.7971 59.5985C44.7971 59.4489 44.7812 59.3153 44.7494 59.1976C44.7176 59.0767 44.6635 58.9717 44.5903 58.8857C44.5171 58.7935 44.4185 58.7235 44.2976 58.6662C44.1735 58.6121 44.0239 58.5739 43.8426 58.5517V60.6262C44.0176 60.6071 44.1671 60.5657 44.288 60.5085C44.4121 60.448 44.5076 60.3717 44.5839 60.2826C44.6603 60.1903 44.7144 60.0885 44.7462 59.9707C44.7812 59.853 44.7971 59.7321 44.7971 59.5985ZM42.9707 58.5517C42.7926 58.5707 42.643 58.6089 42.5189 58.6726C42.398 58.733 42.2994 58.8062 42.2262 58.8953C42.1498 58.9844 42.0957 59.083 42.0639 59.1976C42.0289 59.3089 42.013 59.4298 42.013 59.5571C42.013 59.713 42.0289 59.8498 42.0639 59.9739C42.0957 60.0948 42.1498 60.1998 42.2262 60.2921C42.2994 60.3812 42.398 60.4544 42.5189 60.5117C42.643 60.5689 42.7926 60.6071 42.9707 60.6262V58.5517ZM49.4871 61.8512C49.4871 61.8735 49.4839 61.8926 49.468 61.9085C49.4553 61.9244 49.433 61.9371 49.4012 61.9498C49.3694 61.9594 49.3248 61.9657 49.2707 61.9721C49.2166 61.9753 49.1498 61.9785 49.0639 61.9785C48.9812 61.9785 48.9112 61.9753 48.8539 61.9721C48.7966 61.9657 48.7521 61.9594 48.7171 61.9498C48.6789 61.9371 48.6535 61.9244 48.6375 61.9085C48.6248 61.8926 48.6153 61.8735 48.6153 61.8512V60.4607C48.6153 60.3621 48.6185 60.2603 48.6248 60.1553C48.6312 60.0503 48.6407 59.9485 48.6503 59.8467C48.5962 59.9453 48.5357 60.0407 48.4721 60.1362C48.4053 60.2317 48.3416 60.3239 48.2748 60.4162L47.2312 61.8448C47.2121 61.8703 47.193 61.8926 47.1739 61.9116C47.1548 61.9276 47.1326 61.9403 47.1007 61.953C47.0753 61.9626 47.0371 61.9689 46.9926 61.9721C46.9512 61.9785 46.8939 61.9785 46.8239 61.9785C46.7412 61.9785 46.6744 61.9753 46.6203 61.9721C46.5694 61.9657 46.528 61.9594 46.4962 61.9498C46.4644 61.9371 46.4453 61.9244 46.4326 61.9053C46.4166 61.8894 46.4135 61.8671 46.4135 61.8448V58.7171C46.4135 58.6948 46.4166 58.6757 46.4326 58.6598C46.4453 58.6407 46.4676 58.628 46.4994 58.6153C46.5344 58.6057 46.5789 58.5962 46.633 58.5898C46.6871 58.5835 46.7539 58.5803 46.8366 58.5803C47.0021 58.5803 47.1166 58.593 47.1835 58.6153C47.2503 58.6376 47.2853 58.6726 47.2853 58.7171V60.1012C47.2853 60.1998 47.2789 60.2985 47.2726 60.4003C47.2662 60.5021 47.2566 60.6007 47.2471 60.6962C47.3012 60.6039 47.3585 60.5117 47.4157 60.4194C47.473 60.3271 47.5335 60.238 47.6003 60.1521L48.6503 58.7171C48.6694 58.6917 48.6885 58.6694 48.7107 58.6535C48.7298 58.6344 48.7585 58.6217 48.7871 58.6089C48.8189 58.5994 48.8571 58.593 48.9016 58.5867C48.9494 58.5835 49.0066 58.5803 49.0798 58.5803C49.1594 58.5803 49.2262 58.5835 49.2803 58.5867C49.3344 58.593 49.3757 58.5994 49.4075 58.6121C49.4362 58.6248 49.4585 58.6376 49.4712 58.6567C49.4839 58.6757 49.4871 58.698 49.4871 58.7203V61.8512ZM53.3498 61.8385C53.3498 61.8607 53.3434 61.883 53.3275 61.8989C53.3148 61.918 53.2925 61.9307 53.2607 61.9435C53.2257 61.953 53.1812 61.9626 53.1239 61.9689C53.0666 61.9753 52.9966 61.9785 52.9139 61.9785C52.828 61.9785 52.758 61.9753 52.7007 61.9689C52.6434 61.9626 52.5989 61.953 52.5671 61.9435C52.5353 61.9307 52.513 61.918 52.4971 61.8989C52.4844 61.883 52.478 61.8607 52.478 61.8385V60.6135H51.2307V61.8385C51.2307 61.8607 51.2212 61.883 51.2084 61.8989C51.1957 61.918 51.1703 61.9307 51.1384 61.9435C51.1034 61.953 51.0589 61.9626 51.0048 61.9689C50.9507 61.9753 50.8775 61.9785 50.7948 61.9785C50.7089 61.9785 50.6389 61.9753 50.5816 61.9689C50.5275 61.9626 50.483 61.953 50.4512 61.9435C50.4162 61.9307 50.3907 61.918 50.378 61.8989C50.3653 61.883 50.3589 61.8607 50.3589 61.8385V58.7203C50.3589 58.698 50.3653 58.6757 50.378 58.6598C50.3907 58.6407 50.4162 58.628 50.4512 58.6153C50.483 58.6057 50.5275 58.5962 50.5816 58.5898C50.6389 58.5835 50.7089 58.5803 50.7948 58.5803C50.8775 58.5803 50.9507 58.5835 51.0048 58.5898C51.0589 58.5962 51.1034 58.6057 51.1384 58.6153C51.1703 58.628 51.1957 58.6407 51.2084 58.6598C51.2212 58.6757 51.2307 58.698 51.2307 58.7203V59.8912H52.478V58.7203C52.478 58.698 52.4844 58.6757 52.4971 58.6598C52.513 58.6407 52.5353 58.628 52.5671 58.6153C52.5989 58.6057 52.6434 58.5962 52.7007 58.5898C52.758 58.5835 52.828 58.5803 52.9139 58.5803C52.9966 58.5803 53.0666 58.5835 53.1239 58.5898C53.1812 58.5962 53.2257 58.6057 53.2607 58.6153C53.2925 58.628 53.3148 58.6407 53.3275 58.6598C53.3434 58.6757 53.3498 58.698 53.3498 58.7203V61.8385Z" fill="#2A5633"/>
<path fill-rule="evenodd" clip-rule="evenodd" d="M57.2125 61.8384C57.2125 61.8638 57.2029 61.8829 57.1902 61.902C57.1775 61.9179 57.152 61.9338 57.1202 61.9434C57.0884 61.9561 57.0438 61.9657 56.9865 61.972C56.9293 61.9784 56.8593 61.9784 56.7765 61.9784C56.6906 61.9784 56.6206 61.9784 56.5634 61.972C56.5061 61.9657 56.4616 61.9561 56.4297 61.9434C56.3979 61.9338 56.3725 61.9179 56.3597 61.902C56.347 61.8829 56.3406 61.8638 56.3406 61.8384V60.6102H55.0934V61.8384C55.0934 61.8638 55.0838 61.8829 55.0711 61.902C55.0584 61.9179 55.0329 61.9338 55.0011 61.9434C54.9661 61.9561 54.9216 61.9657 54.8675 61.972C54.8134 61.9784 54.7402 61.9784 54.6575 61.9784C54.5716 61.9784 54.5016 61.9784 54.4443 61.972C54.3902 61.9657 54.3456 61.9561 54.3138 61.9434C54.2788 61.9338 54.2534 61.9179 54.2406 61.902C54.2279 61.8829 54.2216 61.8638 54.2216 61.8384V58.7202C54.2216 58.6979 54.2279 58.6788 54.2406 58.6598C54.2534 58.6438 54.2788 58.6279 54.3138 58.6152C54.3456 58.6057 54.3902 58.5961 54.4443 58.5898C54.5016 58.5834 54.5716 58.5802 54.6575 58.5802C54.7402 58.5802 54.8134 58.5834 54.8675 58.5898C54.9216 58.5961 54.9661 58.6057 55.0011 58.6152C55.0329 58.6279 55.0584 58.6438 55.0711 58.6598C55.0838 58.6788 55.0934 58.6979 55.0934 58.7202V59.8879H56.3406V58.7202C56.3406 58.6979 56.347 58.6788 56.3597 58.6598C56.3725 58.6438 56.3979 58.6279 56.4297 58.6152C56.4616 58.6057 56.5061 58.5961 56.5634 58.5898C56.6206 58.5834 56.6906 58.5802 56.7765 58.5802C56.8593 58.5802 56.9293 58.5834 56.9865 58.5898C57.0438 58.5961 57.0884 58.6057 57.1202 58.6152C57.152 58.6279 57.1775 58.6438 57.1902 58.6598C57.2029 58.6788 57.2125 58.6979 57.2125 58.7202V61.8384ZM61.2024 60.2475C61.2024 60.5116 61.1706 60.7534 61.1006 60.9761C61.0306 61.1957 60.9256 61.3834 60.7856 61.5393C60.6456 61.6984 60.4674 61.8193 60.2543 61.9084C60.0411 61.9943 59.7961 62.0357 59.5097 62.0357C59.2361 62.0357 58.9975 61.9975 58.7938 61.9211C58.5902 61.8447 58.4215 61.7334 58.2879 61.587C58.1543 61.4407 58.0556 61.2593 57.992 61.0461C57.9252 60.8298 57.8934 60.5848 57.8934 60.3111C57.8934 60.047 57.9284 59.802 57.9984 59.5825C58.0715 59.3629 58.1734 59.1752 58.3165 59.0161C58.4565 58.8602 58.6347 58.7393 58.8447 58.6534C59.0547 58.5675 59.3029 58.5261 59.5861 58.5261C59.8629 58.5261 60.1047 58.5611 60.3084 58.6375C60.512 58.7138 60.6774 58.8252 60.8111 58.9716C60.9447 59.1179 61.0434 59.2961 61.107 59.5125C61.1706 59.7257 61.2024 59.9707 61.2024 60.2475ZM60.3115 60.2825C60.3115 60.1298 60.2988 59.9866 60.2734 59.8593C60.2511 59.7288 60.2097 59.6175 60.1493 59.522C60.092 59.4266 60.0156 59.3502 59.9202 59.2961C59.8215 59.2452 59.7038 59.2166 59.5574 59.2166C59.427 59.2166 59.3124 59.242 59.2138 59.2898C59.1184 59.3375 59.0388 59.4075 58.9752 59.4998C58.9115 59.5888 58.8638 59.7002 58.8352 59.8307C58.8034 59.9611 58.7875 60.1075 58.7875 60.2729C58.7875 60.4257 58.8002 60.5657 58.8256 60.6961C58.8511 60.8266 58.8925 60.9411 58.9497 61.0366C59.007 61.132 59.0834 61.2052 59.1788 61.2561C59.2775 61.3102 59.3984 61.3357 59.5415 61.3357C59.6752 61.3357 59.7897 61.3134 59.8852 61.2657C59.9838 61.2179 60.0634 61.1479 60.127 61.0588C60.1906 60.9666 60.2352 60.852 60.267 60.7248C60.2956 60.5943 60.3115 60.4479 60.3115 60.2825ZM63.6111 61.9593L63.2356 63.057C63.2165 63.1175 63.1593 63.1588 63.067 63.1843C62.9747 63.2097 62.8411 63.2225 62.6629 63.2225C62.5706 63.2225 62.4974 63.2193 62.4433 63.2097C62.3861 63.2034 62.3447 63.1907 62.3161 63.1716C62.2906 63.1525 62.2747 63.1302 62.2715 63.1016C62.2715 63.0729 62.2779 63.0379 62.2938 62.9997L62.7043 61.9593C62.6756 61.9434 62.647 61.9211 62.6247 61.8925C62.5993 61.8638 62.5833 61.832 62.5706 61.8002L61.5111 58.9334C61.4824 58.8538 61.4665 58.7902 61.4665 58.7488C61.4665 58.7043 61.4793 58.6725 61.5079 58.647C61.5334 58.6216 61.5811 58.6057 61.6479 58.5961C61.7115 58.5866 61.7974 58.5802 61.9088 58.5802C62.0043 58.5802 62.0838 58.5834 62.1411 58.5866C62.1983 58.5898 62.2429 58.5993 62.2747 58.612C62.3065 58.6279 62.332 58.647 62.3479 58.6788C62.3638 58.7075 62.3797 58.7488 62.3956 58.8029L63.1243 60.8902H63.1338L63.7924 58.7616C63.8083 58.6979 63.8243 58.6598 63.8465 58.6375C63.8688 58.6184 63.9038 58.6057 63.9547 58.5961C64.0056 58.5866 64.0979 58.5802 64.222 58.5802C64.3238 58.5802 64.4065 58.5866 64.4702 58.5961C64.537 58.6057 64.5847 58.6216 64.6165 58.647C64.6483 58.6725 64.6643 58.7075 64.6643 58.752C64.6643 58.7934 64.6547 58.8443 64.6356 58.9048L63.6111 61.9593ZM67.197 58.9875C67.197 59.0607 67.1938 59.1211 67.1842 59.172C67.1779 59.2198 67.1715 59.2611 67.1588 59.2929C67.1461 59.3216 67.1333 59.3438 67.1174 59.3566C67.1015 59.3693 67.0792 59.3757 67.057 59.3757H66.0547V61.8384C66.0547 61.8638 66.0483 61.8829 66.0324 61.902C66.0197 61.9179 65.9974 61.9338 65.9624 61.9434C65.9306 61.9561 65.8861 61.9657 65.832 61.972C65.7747 61.9784 65.7047 61.9784 65.6188 61.9784C65.5329 61.9784 65.4629 61.9784 65.4088 61.972C65.3547 61.9657 65.307 61.9561 65.2752 61.9434C65.2402 61.9338 65.2179 61.9179 65.2052 61.902C65.1892 61.8829 65.1829 61.8638 65.1829 61.8384V58.8857C65.1829 58.7934 65.202 58.7234 65.2433 58.6757C65.2815 58.6279 65.342 58.6025 65.4247 58.6025H67.057C67.0792 58.6025 67.1015 58.6089 67.1174 58.6216C67.1333 58.6343 67.1461 58.6566 67.1588 58.6852C67.1715 58.717 67.1779 58.7552 67.1842 58.8061C67.1938 58.857 67.197 58.9175 67.197 58.9875ZM70.751 60.2475C70.751 60.5116 70.7192 60.7534 70.6492 60.9761C70.5792 61.1957 70.4742 61.3834 70.3311 61.5393C70.1911 61.6984 70.0161 61.8193 69.8029 61.9084C69.5897 61.9943 69.3415 62.0357 69.0583 62.0357C68.7847 62.0357 68.5461 61.9975 68.3424 61.9211C68.1388 61.8447 67.9701 61.7334 67.8365 61.587C67.7029 61.4407 67.6042 61.2593 67.5374 61.0461C67.4738 60.8298 67.442 60.5848 67.442 60.3111C67.442 60.047 67.477 59.802 67.547 59.5825C67.617 59.3629 67.722 59.1752 67.8651 59.0161C68.0051 58.8602 68.1801 58.7393 68.3933 58.6534C68.6033 58.5675 68.8515 58.5261 69.1347 58.5261C69.4115 58.5261 69.6533 58.5611 69.8538 58.6375C70.0574 58.7138 70.226 58.8252 70.3597 58.9716C70.4933 59.1179 70.5888 59.2961 70.6556 59.5125C70.7192 59.7257 70.751 59.9707 70.751 60.2475ZM69.8601 60.2825C69.8601 60.1298 69.8474 59.9866 69.822 59.8593C69.7965 59.7288 69.7583 59.6175 69.6979 59.522C69.6406 59.4266 69.5642 59.3502 69.4688 59.2961C69.3701 59.2452 69.2492 59.2166 69.1029 59.2166C68.9724 59.2166 68.8611 59.242 68.7624 59.2898C68.667 59.3375 68.5842 59.4075 68.5238 59.4998C68.4601 59.5888 68.4124 59.7002 68.3806 59.8307C68.3488 59.9611 68.3361 60.1075 68.3361 60.2729C68.3361 60.4257 68.3488 60.5657 68.3742 60.6961C68.3997 60.8266 68.4411 60.9411 68.4983 61.0366C68.5524 61.132 68.6288 61.2052 68.7274 61.2561C68.8261 61.3102 68.947 61.3357 69.0901 61.3357C69.2238 61.3357 69.3351 61.3134 69.4338 61.2657C69.5324 61.2179 69.612 61.1479 69.6756 61.0588C69.7361 60.9666 69.7838 60.852 69.8124 60.7248C69.8442 60.5943 69.8601 60.4479 69.8601 60.2825ZM74.5469 60.2348C74.5469 60.5084 74.5183 60.7598 74.461 60.9857C74.4038 61.2052 74.3147 61.3961 74.2033 61.552C74.0888 61.7079 73.9488 61.8257 73.7833 61.9116C73.6115 61.9943 73.4206 62.0357 73.2042 62.0357C73.1151 62.0357 73.0324 62.0293 72.956 62.0102C72.8829 61.9911 72.8097 61.9657 72.7397 61.9307C72.6697 61.8925 72.5997 61.8479 72.5297 61.797C72.4597 61.7429 72.3897 61.6793 72.3165 61.6061V63.0729C72.3165 63.0952 72.3101 63.1175 72.2942 63.1366C72.2815 63.1525 72.2592 63.1716 72.2242 63.1811C72.1892 63.1938 72.1447 63.2034 72.0906 63.2129C72.0365 63.2193 71.9665 63.2225 71.8806 63.2225C71.7947 63.2225 71.7247 63.2193 71.6674 63.2129C71.6133 63.2034 71.5688 63.1938 71.537 63.1811C71.502 63.1716 71.4797 63.1525 71.467 63.1366C71.451 63.1175 71.4447 63.0952 71.4447 63.0729V58.7202C71.4447 58.6979 71.451 58.6788 71.4606 58.6598C71.4733 58.6438 71.4924 58.6279 71.521 58.6152C71.5497 58.6057 71.5879 58.5961 71.6356 58.5898C71.6833 58.5834 71.7438 58.5802 71.8138 58.5802C71.8838 58.5802 71.941 58.5834 71.9888 58.5898C72.0365 58.5961 72.0747 58.6057 72.1033 58.6152C72.132 58.6279 72.151 58.6438 72.1638 58.6598C72.1765 58.6788 72.1797 58.6979 72.1797 58.7234V59.0893C72.272 58.997 72.3579 58.9143 72.447 58.8443C72.5329 58.7711 72.6188 58.7138 72.7079 58.6661C72.8001 58.6184 72.8924 58.5834 72.9879 58.5579C73.0833 58.5357 73.1851 58.5261 73.2933 58.5261C73.5192 58.5261 73.7133 58.5707 73.8724 58.6598C74.0315 58.7488 74.1588 58.8698 74.2606 59.0257C74.3624 59.1816 74.4324 59.3629 74.4801 59.5729C74.5247 59.7766 74.5469 59.9993 74.5469 60.2348ZM73.6401 60.2952C73.6401 60.1616 73.6306 60.0343 73.6115 59.9134C73.5924 59.7925 73.5574 59.6843 73.5129 59.5888C73.4651 59.4934 73.4015 59.417 73.3251 59.3598C73.2488 59.3025 73.1533 59.2738 73.0388 59.2738C72.9783 59.2738 72.9242 59.2834 72.867 59.3025C72.8097 59.3184 72.7524 59.347 72.6951 59.3884C72.6347 59.4266 72.5742 59.4775 72.5138 59.5379C72.4501 59.6016 72.3833 59.6811 72.3165 59.7734V60.7979C72.4374 60.957 72.5551 61.0748 72.6633 61.1607C72.7747 61.2434 72.8892 61.2848 73.0101 61.2848C73.1215 61.2848 73.2169 61.2561 73.2965 61.1988C73.376 61.1416 73.4429 61.0652 73.4938 60.9729C73.5447 60.8775 73.5797 60.7693 73.6051 60.6484C73.6306 60.5307 73.6401 60.4129 73.6401 60.2952ZM78.3269 61.8511C78.3269 61.8734 78.3206 61.8925 78.3078 61.9084C78.2951 61.9243 78.2728 61.9402 78.241 61.9497C78.2092 61.9593 78.1647 61.9688 78.1106 61.972C78.0565 61.9784 77.9865 61.9784 77.9038 61.9784C77.821 61.9784 77.751 61.9784 77.6938 61.972C77.6365 61.9688 77.5888 61.9593 77.5538 61.9497C77.5188 61.9402 77.4933 61.9243 77.4774 61.9084C77.4615 61.8925 77.4551 61.8734 77.4551 61.8511V60.4575C77.4551 60.3588 77.4583 60.257 77.4647 60.152C77.471 60.0502 77.4774 59.9452 77.4901 59.8466C77.4328 59.9452 77.3756 60.0407 77.3088 60.1329C77.2451 60.2284 77.1815 60.3207 77.1115 60.4161L76.071 61.8479C76.0488 61.8734 76.0297 61.8925 76.0106 61.9116C75.9947 61.9307 75.9692 61.9434 75.9406 61.9529C75.9119 61.9625 75.8769 61.972 75.8324 61.9752C75.7878 61.9784 75.7306 61.9784 75.6638 61.9784C75.581 61.9784 75.511 61.9784 75.4601 61.972C75.4092 61.9688 75.3679 61.9593 75.336 61.9497C75.3042 61.9402 75.2819 61.9243 75.2692 61.9084C75.2533 61.8893 75.2469 61.8702 75.2469 61.8479V58.717C75.2469 58.6979 75.2533 58.6788 75.2692 58.6598C75.2819 58.6438 75.3042 58.6279 75.3392 58.6152C75.3742 58.6057 75.4156 58.5961 75.4697 58.5898C75.5238 58.5834 75.5938 58.5802 75.6765 58.5802C75.8419 58.5802 75.9565 58.5929 76.0233 58.6152C76.0901 58.6407 76.1219 58.6725 76.1219 58.717V60.1011C76.1219 60.1966 76.1188 60.2952 76.1124 60.397C76.106 60.4988 76.0965 60.6007 76.0838 60.6961C76.141 60.6007 76.1951 60.5084 76.2556 60.4161C76.3128 60.3238 76.3733 60.2348 76.4369 60.1488L77.4901 58.717C77.5092 58.6916 77.5283 58.6725 77.5474 58.6534C77.5697 58.6375 77.5951 58.6216 77.6269 58.612C77.6588 58.5993 77.6969 58.5929 77.7415 58.5898C77.786 58.5834 77.8465 58.5802 77.9165 58.5802C77.9992 58.5802 78.066 58.5834 78.1201 58.5898C78.171 58.5929 78.2124 58.6025 78.2442 58.6152C78.276 58.6248 78.2983 58.6407 78.3078 58.6598C78.3206 58.6757 78.3269 58.6979 78.3269 58.7234V61.8511ZM82.2724 61.8511C82.2724 61.8734 82.266 61.8925 82.2533 61.9084C82.2406 61.9243 82.2183 61.9402 82.1865 61.9497C82.1546 61.9593 82.1101 61.9688 82.056 61.972C82.0019 61.9784 81.9319 61.9784 81.8492 61.9784C81.7665 61.9784 81.6965 61.9784 81.6392 61.972C81.5819 61.9688 81.5342 61.9593 81.4992 61.9497C81.4642 61.9402 81.4387 61.9243 81.4228 61.9084C81.4069 61.8925 81.4006 61.8734 81.4006 61.8511V60.4575C81.4006 60.3588 81.4037 60.257 81.4101 60.152C81.4165 60.0502 81.426 59.9452 81.4356 59.8466C81.3783 59.9452 81.321 60.0407 81.2542 60.1329C81.1906 60.2284 81.1269 60.3207 81.0569 60.4161L80.0165 61.8479C79.9942 61.8734 79.9751 61.8925 79.956 61.9116C79.9401 61.9307 79.9147 61.9434 79.886 61.9529C79.8574 61.9625 79.8224 61.972 79.7778 61.9752C79.7333 61.9784 79.676 61.9784 79.6092 61.9784C79.5265 61.9784 79.4565 61.9784 79.4056 61.972C79.3547 61.9688 79.3133 61.9593 79.2815 61.9497C79.2497 61.9402 79.2274 61.9243 79.2147 61.9084C79.2019 61.8893 79.1956 61.8702 79.1956 61.8479V58.717C79.1956 58.6979 79.2019 58.6788 79.2147 58.6598C79.2274 58.6438 79.2497 58.6279 79.2847 58.6152C79.3197 58.6057 79.361 58.5961 79.4151 58.5898C79.4692 58.5834 79.5392 58.5802 79.6219 58.5802C79.7874 58.5802 79.9019 58.5929 79.9687 58.6152C80.0356 58.6407 80.0674 58.6725 80.0674 58.717V60.1011C80.0674 60.1966 80.0642 60.2952 80.0578 60.397C80.0515 60.4988 80.0419 60.6007 80.0292 60.6961C80.0865 60.6007 80.1406 60.5084 80.201 60.4161C80.2583 60.3238 80.3187 60.2348 80.3824 60.1488L81.4356 58.717C81.4546 58.6916 81.4737 58.6725 81.496 58.6534C81.5151 58.6375 81.5406 58.6216 81.5724 58.612C81.6042 58.5993 81.6424 58.5929 81.6869 58.5898C81.7315 58.5834 81.7919 58.5802 81.8619 58.5802C81.9446 58.5802 82.0115 58.5834 82.0656 58.5898C82.1196 58.5929 82.161 58.6025 82.1896 58.6152C82.2215 58.6248 82.2437 58.6407 82.2565 58.6598C82.266 58.6757 82.2724 58.6979 82.2724 58.7234V61.8511Z" fill="#2A5633"/>
</svg>
